<svg width="25" height="24" viewBox="0 0 25 24" fill="none" xmlns="http://www.w3.org/2000/svg">
<path fill-rule="evenodd" clip-rule="evenodd" d="M4.72603 13L25 13L25 11L4.50564 11C5.36826 10.5028 6.31297 9.91943 7.25974 9.26372C8.87672 8.14385 10.5364 6.78792 11.8014 5.26106C13.0591 3.74298 14.0067 1.95782 14.0067 -2.86842e-06L12.0377 -3.04055e-06C12.0377 1.29217 11.4061 2.63201 10.2949 3.97331C9.19093 5.30583 7.6921 6.54364 6.15055 7.61127C4.61524 8.67458 3.07387 9.5443 1.91282 10.1493C1.33344 10.4512 0.851539 10.6857 0.516044 10.8441C0.348357 10.9233 0.217426 10.9833 0.12938 11.0232C0.0853645 11.0431 0.0520851 11.0579 0.0303089 11.0676L0.00637358 11.0782L0.00106162 11.0805L0.000100312 11.0809C0.000107941 11.0809 -0.00012857 11.0804 0.000100312 11.0809L0.0306807 12.9311C0.0306902 12.9311 0.0304327 12.9317 0.0306807 12.9311L0.0364084 12.9341L0.0599585 12.9435C0.0814772 12.9522 0.114491 12.9657 0.158233 12.9838C0.24573 13.0201 0.376081 13.0749 0.543155 13.1477C0.877437 13.2932 1.35794 13.5099 1.93578 13.792C3.09395 14.3573 4.63099 15.179 6.16152 16.2087C7.69805 17.2425 9.19057 18.461 10.2898 19.8096C11.3906 21.1601 12.0377 22.5661 12.0377 24L14.0067 24C14.0067 21.9339 13.0745 20.0899 11.8064 18.5341C10.5368 16.9765 8.87077 15.6325 7.24877 14.5413C6.38597 13.9608 5.52499 13.4448 4.72603 13Z" fill="#8E8E8E"/>
</svg>
