<svg width="11" height="11" fill="none" xmlns="http://www.w3.org/2000/svg">
  <path fill-rule="evenodd" clip-rule="evenodd" d="M8.218 1.881.677 9.423l.813.813L9.03 2.695c-.073.348-.14.724-.194 1.114-.12.884-.172 1.867-.036 2.793.136.924.466 1.84 1.151 2.525l.813-.813c-.449-.45-.711-1.097-.826-1.879-.114-.78-.075-1.646.038-2.47a16.383 16.383 0 0 1 .7-2.957l.016-.044.004-.01V.952L9.961.214h-.002l-.01.004-.044.016-.175.058a16.385 16.385 0 0 1-2.783.643c-.824.112-1.69.152-2.47.037C3.695.86 3.047.596 2.6.147L1.786.96c.685.686 1.6 1.016 2.524 1.151.926.136 1.91.085 2.793-.036.39-.053.767-.12 1.115-.194Z" fill="currentColor"/>
</svg>