<svg width="26" height="25" viewBox="0 0 26 25" fill="none" xmlns="http://www.w3.org/2000/svg">
<path fill-rule="evenodd" clip-rule="evenodd" d="M24.4487 0.520707L25.1131 1.16318L25.1122 1.16552L25.1089 1.17406L25.0951 1.20938C25.0829 1.24094 25.0646 1.28836 25.0409 1.35078C24.9936 1.47564 24.9245 1.66049 24.8386 1.89846C24.6667 2.37447 24.4275 3.06264 24.1592 3.90804C23.6221 5.60009 22.9707 7.91596 22.5095 10.4178C22.0476 12.9233 21.7808 15.5935 22 18.0012C22.2197 20.4143 22.9215 22.5022 24.3371 23.9177L23.63 24.6248C21.9814 22.9763 21.2343 20.6206 21.0041 18.0919C20.7734 15.5578 21.0557 12.788 21.5261 10.2365C21.9971 7.68132 22.6609 5.32321 23.206 3.60553C23.2851 3.35645 23.3617 3.12071 23.4349 2.89965L1.66726 24.6673L0.960155 23.9602L22.6195 2.3008C22.4541 2.36002 22.281 2.42108 22.1006 2.48357C20.4185 3.06636 18.1026 3.77548 15.5743 4.27685C13.0496 4.77751 10.2909 5.07554 7.73045 4.8218C5.17101 4.56817 2.76311 3.75795 1.00258 1.99742L1.70969 1.29031C3.24899 2.82962 5.40252 3.58622 7.82906 3.82668C10.2546 4.06704 12.9065 3.78641 15.3798 3.29595C17.8496 2.80618 20.1193 2.1117 21.7732 1.53867C22.5995 1.25238 23.2706 0.996976 23.7341 0.813519C23.9658 0.721807 24.1456 0.648116 24.2669 0.597592C24.3276 0.572332 24.3736 0.552865 24.4041 0.539838L24.4383 0.525206L24.4465 0.521663L24.4487 0.520707Z" fill="#0C0C0C"/>
</svg>
