<svg width="77" height="51" fill="none" xmlns="http://www.w3.org/2000/svg">
  <path fill-rule="evenodd" clip-rule="evenodd" d="M64.067 41.03C70.501 36.77 74 31.217 74 25.5c0-5.717-3.5-11.269-9.933-15.53C57.657 5.724 48.626 3 38.5 3S19.344 5.724 12.933 9.97C6.5 14.23 3 19.783 3 25.5c0 5.717 3.5 11.269 9.933 15.53C19.343 45.276 28.374 48 38.5 48s19.156-2.724 25.567-6.97ZM38.5 51C59.763 51 77 39.583 77 25.5S59.763 0 38.5 0 0 11.417 0 25.5 17.237 51 38.5 51Z" fill="#8E8E8E"/>
  <path fill-rule="evenodd" clip-rule="evenodd" d="M44.277 24.5H26v3h18.529c-.222.155-.446.315-.67.48-1.368 1.01-2.795 2.241-3.894 3.627C38.877 32.98 38 34.647 38 36.5h3c0-.898.435-1.917 1.316-3.03.87-1.097 2.068-2.148 3.325-3.076a34.161 34.161 0 0 1 3.455-2.22 33.756 33.756 0 0 1 1.528-.81l.018-.008.003-.002-.054-2.732-.002-.002-.018-.007a29.24 29.24 0 0 1-1.516-.738 29.8 29.8 0 0 1-3.433-2.096c-1.248-.891-2.435-1.92-3.297-3.028C41.46 17.64 41 16.551 41 15.5h-3c0 1.95.852 3.673 1.957 5.093 1.106 1.422 2.544 2.644 3.921 3.628.133.095.266.188.399.279Z" fill="#fff"/>
</svg>