<svg width="24" height="24" viewBox="0 0 24 24" fill="none" xmlns="http://www.w3.org/2000/svg">
<circle cx="12" cy="12" r="11.5" stroke="#8E8E8E"/>
<path fill-rule="evenodd" clip-rule="evenodd" d="M12 8.67601L11.4509 8.31519C10.3838 7.61404 9.39555 7.19723 8.613 7.05506C7.80811 6.90883 7.41516 7.07742 7.2463 7.24628C7.07745 7.41514 6.90886 7.80809 7.05508 8.61297C7.19725 9.39553 7.61406 10.3838 8.3152 11.4508L8.67603 12L8.3152 12.5491C7.61403 13.6162 7.19721 14.6045 7.05503 15.387C6.90879 16.1919 7.07738 16.5849 7.24624 16.7538C7.4151 16.9226 7.80806 17.0912 8.61296 16.945C9.39552 16.8028 10.3838 16.386 11.4509 15.6848L12 15.324L12.5491 15.6848C13.6162 16.386 14.6045 16.8028 15.3871 16.945C16.192 17.0913 16.585 16.9227 16.7538 16.7538C16.9227 16.5849 17.0913 16.192 16.945 15.3871C16.8028 14.6045 16.386 13.6162 15.6848 12.5491L15.324 12L15.6848 11.4508C16.386 10.3838 16.8028 9.39551 16.945 8.61295C17.0912 7.80806 16.9226 7.4151 16.7538 7.24624C16.5849 7.07738 16.1919 6.90879 15.387 7.05503C14.6045 7.1972 13.6162 7.61402 12.5491 8.31518L12 8.67601ZM16.5206 12C18.0179 9.72124 18.4653 7.54359 17.4609 6.53914C16.4564 5.53468 14.2787 5.98214 12 7.47945C9.72128 5.98217 7.54364 5.53473 6.5392 6.53918C5.53475 7.54362 5.98219 9.72126 7.47947 12C5.98214 14.2787 5.53468 16.4564 6.53914 17.4609C7.54359 18.4653 9.72126 18.0179 12 16.5205C14.2788 18.0179 16.4565 18.4654 17.4609 17.4609C18.4654 16.4564 18.0179 14.2787 16.5206 12Z" fill="#8E8E8E"/>
</svg>
