<svg width="34" height="40" fill="none" xmlns="http://www.w3.org/2000/svg">
  <path fill-rule="evenodd" clip-rule="evenodd" d="m9.444 0 .084.001h20.01c.679 0 1.018 0 1.256.175a.91.91 0 0 1 .2.202c.174.24.174.583.174 1.27V4.07c0 .685 0 1.028-.173 1.268a.91.91 0 0 1-.2.203c-.239.174-.578.174-1.258.174H6.23c-2.116 0-3.175 0-3.963.46-.516.3-.945.733-1.243 1.254-.455.796-.455 1.864-.455 4s0 3.204.455 4c.298.521.727.954 1.243 1.255.788.46 1.847.46 3.963.46h18.239l.085-.002h.189c.355.002.917.027 1.466.207.208.068.41.152.606.252.619.317 1.096.805 1.317 1.032l.06.06 4.253 4.272.06.06c.227.224.717.706 1.035 1.334.1.197.185.403.253.614.217.671.21 1.36.207 1.68a47.501 47.501 0 0 1 0 .087v3.748c.003.32.01 1.01-.207 1.68a4.247 4.247 0 0 1-.253.615c-.318.628-.807 1.11-1.034 1.333l-.061.06-4.254 4.272-.06.06c-.22.227-.697.715-1.316 1.032-.195.1-.398.185-.606.253-.66.216-1.34.21-1.655.206H4.463c-.68 0-1.02 0-1.257-.175a.91.91 0 0 1-.2-.202c-.174-.24-.174-.583-.174-1.27V35.93c0-.685 0-1.028.173-1.269a.91.91 0 0 1 .2-.202c.239-.174.578-.174 1.258-.174H27.8c2.116 0 3.174 0 3.962-.46.517-.3.946-.733 1.244-1.255.455-.795.455-1.863.455-4 0-2.135 0-3.203-.455-3.999a3.413 3.413 0 0 0-1.244-1.255c-.788-.46-1.846-.46-3.963-.46H9.533l-.084.002h-.175c-.355 0-.925-.025-1.483-.207a4.159 4.159 0 0 1-.606-.253c-.62-.319-1.097-.808-1.319-1.035a7.498 7.498 0 0 0-.06-.061l-4.254-4.284-.061-.06c-.226-.224-.714-.705-1.031-1.333a4.248 4.248 0 0 1-.253-.614c-.216-.67-.21-1.358-.206-1.678V9.487c-.003-.32-.01-1.013.208-1.686a4.25 4.25 0 0 1 .255-.616c.32-.63.812-1.112 1.04-1.336l.062-.06 4.25-4.247.06-.06c.22-.225.696-.71 1.314-1.025.195-.1.397-.184.604-.251C8.453-.01 9.13-.002 9.444 0Z" fill="#1BF817" />
</svg>