<svg width="19" height="19" viewBox="0 0 19 19" fill="none" xmlns="http://www.w3.org/2000/svg">
<circle cx="9.5" cy="8.5" r="7" stroke="#0C0C0C"/>
<path d="M12.5 8.5C12.5 10.5149 12.1179 12.3146 11.5218 13.5919C10.9068 14.9097 10.1568 15.5 9.5 15.5C8.84315 15.5 8.09323 14.9097 7.47822 13.5919C6.88215 12.3146 6.5 10.5149 6.5 8.5C6.5 6.48515 6.88215 4.68543 7.47822 3.40814C8.09323 2.09025 8.84315 1.5 9.5 1.5C10.1568 1.5 10.9068 2.09025 11.5218 3.40814C12.1179 4.68543 12.5 6.48515 12.5 8.5Z" stroke="#0C0C0C"/>
<path d="M9.5 11.5C7.48515 11.5 5.68543 11.1179 4.40814 10.5218C3.09025 9.90677 2.5 9.15685 2.5 8.5C2.5 7.84315 3.09025 7.09323 4.40814 6.47822C5.68543 5.88215 7.48515 5.5 9.5 5.5C11.5149 5.5 13.3146 5.88215 14.5919 6.47822C15.9097 7.09323 16.5 7.84315 16.5 8.5C16.5 9.15685 15.9097 9.90677 14.5919 10.5218C13.3146 11.1179 11.5149 11.5 9.5 11.5Z" stroke="#0C0C0C"/>
</svg>
