<svg width="24" height="24" fill="none" xmlns="http://www.w3.org/2000/svg">
  <circle cx="12" cy="12" r="11.5" stroke="#8E8E8E"/>
  <path fill-rule="evenodd" clip-rule="evenodd" d="m12 8.676-.55-.36c-1.066-.702-2.054-1.119-2.837-1.26-.805-.147-1.198.021-1.367.19-.169.17-.337.562-.19 1.367.141.783.558 1.77 1.26 2.838l.36.549-.36.55c-.702 1.066-1.119 2.054-1.261 2.837-.146.805.022 1.198.191 1.367.17.169.562.337 1.367.191.783-.142 1.77-.559 2.838-1.26l.549-.361.55.36c1.066.702 2.054 1.119 2.837 1.261.805.146 1.198-.022 1.367-.191.169-.17.337-.562.191-1.367-.142-.783-.559-1.77-1.26-2.838L15.324 12l.36-.55c.702-1.066 1.119-2.054 1.261-2.837.146-.805-.022-1.198-.191-1.367-.17-.169-.562-.337-1.367-.191-.783.142-1.77.559-2.838 1.26L12 8.676ZM16.52 12c1.498-2.279 1.945-4.456.94-5.46-1.004-1.005-3.181-.558-5.46.94-2.279-1.498-4.456-1.945-5.46-.94-1.005 1.004-.558 3.181.94 5.46-1.498 2.279-1.945 4.456-.94 5.46 1.004 1.005 3.181.558 5.46-.94 2.279 1.498 4.456 1.945 5.46.94 1.005-1.004.558-3.181-.94-5.46Z" fill="#8E8E8E"/>
</svg>